<svg viewBox="0 0 24 24" xmlns="http://www.w3.org/2000/svg" xmlns:xlink="http://www.w3.org/1999/xlink"><g stroke="none" stroke-width="1" fill="none" fill-rule="evenodd"><g fill="black" fill-rule="nonzero"><path d="M23.1503106,19.8559006 C24.0819876,20.7875776 24.0819876,22.2968944 23.1503106,23.2285714 C22.6881988,23.6944099 22.0770186,23.9254658 21.4658385,23.9254658 C20.8546584,23.9254658 20.2449689,23.6925466 19.7798758,23.2267081 L11.9254658,15.3763975 L4.07180124,23.2248447 C3.60596273,23.6944099 2.99552795,23.9254658 2.38509317,23.9254658 C1.77465839,23.9254658 1.16496894,23.6944099 0.698757764,23.2248447 C-0.232919255,22.2931677 -0.232919255,20.7838509 0.698757764,19.8521739 L8.55465839,11.9962733 L0.698757764,4.14409938 C-0.232919255,3.21242236 -0.232919255,1.70310559 0.698757764,0.771428571 C1.63043478,-0.160248447 3.13975155,-0.160248447 4.07142857,0.771428571 L11.9254658,8.6310559 L19.7813665,0.77515528 C20.7130435,-0.156521739 22.2223602,-0.156521739 23.1540373,0.77515528 C24.0857143,1.7068323 24.0857143,3.21614907 23.1540373,4.14782609 L15.2981366,12.0037267 L23.1503106,19.8559006 Z"></path></g></g></svg>