<svg viewBox="0 0 19 24" xmlns="http://www.w3.org/2000/svg" xmlns:xlink="http://www.w3.org/1999/xlink"><g stroke="none" stroke-width="1" fill="none" fill-rule="evenodd"><g fill="currentColor" fill-rule="nonzero"><path d="M7.90450098,23.4457926 C5.45283757,20.4305284 0,13.1225049 0,9.01761252 C0,4.03726027 4.03726027,0 9.01761252,0 C13.9960861,0 18.035225,4.03726027 18.035225,9.01761252 C18.035225,13.1225049 12.5401174,20.4305284 10.1307241,23.4457926 C9.55303327,24.1643836 8.48219178,24.1643836 7.90450098,23.4457926 L7.90450098,23.4457926 Z M9.01761252,12.0234834 C10.6755382,12.0234834 12.0234834,10.6755382 12.0234834,9.01761252 C12.0234834,7.35968689 10.6755382,6.01174168 9.01761252,6.01174168 C7.35968689,6.01174168 6.01174168,7.35968689 6.01174168,9.01761252 C6.01174168,10.6755382 7.35968689,12.0234834 9.01761252,12.0234834 Z"></path></g></g></svg>
