<svg width="17" height="14" viewBox="0 0 17 14" fill="none" xmlns="http://www.w3.org/2000/svg">
<path d="M0.5 1.625C0.5 1.02734 0.992188 0.5 1.625 0.5H15.125C15.7227 0.5 16.25 1.02734 16.25 1.625C16.25 2.25781 15.7227 2.75 15.125 2.75H1.625C0.992188 2.75 0.5 2.25781 0.5 1.625ZM2.75 7.25C2.75 6.65234 3.24219 6.125 3.875 6.125H12.875C13.4727 6.125 14 6.65234 14 7.25C14 7.88281 13.4727 8.375 12.875 8.375H3.875C3.24219 8.375 2.75 7.88281 2.75 7.25ZM10.625 12.875C10.625 13.5078 10.0977 14 9.5 14H7.25C6.61719 14 6.125 13.5078 6.125 12.875C6.125 12.2773 6.61719 11.75 7.25 11.75H9.5C10.0977 11.75 10.625 12.2773 10.625 12.875Z" fill="black"/>
</svg>
