<svg viewBox="0 0 28 24" xmlns="http://www.w3.org/2000/svg" xmlns:xlink="http://www.w3.org/1999/xlink"><g stroke="none" stroke-width="1" fill="none" fill-rule="evenodd"><g fill="currentColor" fill-rule="nonzero"><path d="M0,2 C0,0.895624998 0.895624998,0 2,0 L26,0 C27.10625,0 28,0.895624998 28,2 C28,3.10625 27.10625,4 26,4 L2,4 C0.895624998,4 0,3.10625 0,2 Z M0,12 C0,10.89375 0.895624998,9.99999998 2,9.99999998 L26,9.99999998 C27.10625,9.99999998 28,10.89375 28,12 C28,13.10625 27.10625,14 26,14 L2,14 C0.895624998,14 0,13.10625 0,12 Z M26,23.9999999 L2,23.9999999 C0.895624998,23.9999999 0,23.1062499 0,21.9999999 C0,20.89375 0.895624998,19.9999999 2,19.9999999 L26,19.9999999 C27.10625,19.9999999 28,20.89375 28,21.9999999 C28,23.1062499 27.10625,23.9999999 26,23.9999999 Z"></path></g></g></svg>