<svg width="30" height="24" viewBox="0 0 30 24" fill="none" xmlns="http://www.w3.org/2000/svg"><path d="M28.1527 0V5.08411H25.2709C23.0049 5.08411 21.8719 6.23053 21.8719 8.52337V10.9159H23.1281C25.0985 10.9159 26.7241 11.514 28.0049 12.7103C29.335 13.9065 30 15.4268 30 17.271C30 19.2648 29.335 20.8847 28.0049 22.1308C26.7241 23.3769 25.0985 24 23.1281 24C21.1084 24 19.4581 23.3769 18.1773 22.1308C16.8966 20.8349 16.2562 19.1153 16.2562 16.972V8.37383C16.2562 2.79128 19.0148 0 24.532 0H28.1527ZM11.8966 0V5.08411H9.01478C6.74877 5.08411 5.61576 6.23053 5.61576 8.52337V10.9159H6.87192C8.84236 10.9159 10.468 11.514 11.7488 12.7103C13.0788 13.9065 13.7438 15.4268 13.7438 17.271C13.7438 19.2648 13.0788 20.8847 11.7488 22.1308C10.468 23.3769 8.84236 24 6.87192 24C4.85222 24 3.20197 23.3769 1.92118 22.1308C0.640394 20.8349 0 19.1153 0 16.972V8.37383C0 2.79128 2.75862 0 8.27586 0H11.8966Z" fill="#396881"/></svg>
