<svg viewBox="0 0 17 24" xmlns="http://www.w3.org/2000/svg" xmlns:xlink="http://www.w3.org/1999/xlink"><g stroke="none" stroke-width="1" fill="none" fill-rule="evenodd"><g fill="currentColor" fill-rule="nonzero"><path d="M13.5,0 L3,0 C1.34296875,0 0,1.34296875 0,3 L0,21 C0,22.6570313 1.34296875,24 3,24 L13.5,24 C15.1570313,24 16.5,22.6570313 16.5,21 L16.5,3 C16.5,1.34296875 15.1546875,0 13.5,0 Z M8.25,22.5 C7.41796875,22.5 6.75,21.8320312 6.75,21 C6.75,20.1679688 7.41796875,19.5 8.25,19.5 C9.08203125,19.5 9.75,20.1679688 9.75,21 C9.75,21.8320312 9.084375,22.5 8.25,22.5 Z M13.5,3 L13.5,18 L3,18 L3,3 L13.5,3 Z"></path></g></g></svg>
