<svg width="24px" height="24px" viewBox="0 0 24 24" version="1.1" xmlns="http://www.w3.org/2000/svg" xmlns:xlink="http://www.w3.org/1999/xlink"><g stroke="none" stroke-width="1" fill="none" fill-rule="evenodd"><g transform="translate(0.000000, -0.000000)" fill="#000000" fill-rule="nonzero"><path d="M16.2288159,6.83223493 L22.7593337,7.79567944 C23.3001351,7.87293678 23.75459,8.25467895 23.9272829,8.77730215 C24.0999758,9.3044699 23.9590948,9.87708314 23.5682635,10.2679144 L18.8328429,14.9124441 L19.950802,21.5747538 C20.041693,22.1200997 19.8190101,22.6745347 19.3645552,22.9971978 C18.9146447,23.3198608 18.3193088,23.3607617 17.8330419,23.1017224 L11.9978403,19.9887059 L6.16718319,23.1017224 C5.67637183,23.3607617 5.08103584,23.3198608 4.63112543,22.9971978 C4.18121502,22.6745347 3.95398755,22.1200997 4.04942309,21.5747538 L5.16738228,14.9124441 L0.431052715,10.2679144 C0.0397669968,9.87708314 -0.0992962202,9.3044699 0.0724877537,8.77730215 C0.243817273,8.25467895 0.696908865,7.87293678 1.24180036,7.79567944 L7.76686464,6.83223493 L10.6935546,0.818432477 C10.9344157,0.317804896 11.4434052,-4.27918379e-16 11.9978403,-4.27918379e-16 C12.5568199,-4.27918379e-16 13.0658094,0.317804896 13.3066706,0.818432477 L16.2288159,6.83223493 Z" id="Path"></path></g></g></svg>