<svg width="27" height="20" viewBox="0 0 27 20" fill="none" xmlns="http://www.w3.org/2000/svg"><circle cx="17" cy="10" r="9" stroke="black" stroke-width="2"/><path d="M15.4688 14.7656C15.3125 14.6406 15.25 14.4531 15.25 14.2344C15.25 14.0469 15.3125 13.8594 15.4688 13.7344L18.4375 10.7344H0.75C0.3125 10.7344 0 10.4219 0 9.98438C0 9.57812 0.3125 9.23438 0.75 9.23438H18.4375L15.4688 6.26562C15.1562 5.98438 15.1562 5.51562 15.4688 5.23438C15.75 4.92188 16.2188 4.92188 16.5312 5.23438L20.7812 9.48438C21.0625 9.76562 21.0625 10.2344 20.7812 10.5156L16.5312 14.7656C16.2188 15.0781 15.75 15.0781 15.4688 14.7656Z" fill="black"/></svg>
