<svg width="91" height="65" viewBox="0 0 91 65" fill="none" xmlns="http://www.w3.org/2000/svg">
<path d="M88.4749 83H25.1992V3H70.0775L88.4749 21.3972V83Z" fill="white" stroke="black" stroke-width="3.20001"/>
<path d="M69.1992 24.2V3L88.7993 21.8V24.2H69.1992Z" fill="#FFCB00"/>
<path d="M88.4749 83H25.1992V3H70.0775L88.4749 21.3972V83Z" stroke="black" stroke-width="3.20001"/>
<path d="M48.6133 38.6793H76.488" stroke="black" stroke-width="3.20001"/>
<path d="M35.2344 38.6793H43.5968" stroke="black" stroke-width="3.20001"/>
<path d="M48.6133 52.6167H76.488" stroke="black" stroke-width="3.20001"/>
<path d="M35.2344 52.6167H43.5968" stroke="black" stroke-width="3.20001"/>
<path d="M48.6133 66.554H76.488" stroke="black" stroke-width="3.20001"/>
<path d="M35.2344 66.554H43.5968" stroke="black" stroke-width="3.20001"/>
<path d="M68.0547 3V23.1059H87.6757" stroke="black" stroke-width="3.20001"/>
<path d="M44.3126 20.2629L39.3141 15.2645L38.607 14.5574L37.8999 15.2645L35.6913 17.4731L34.9842 18.1802L35.6913 18.8873L43.6055 26.8014L44.3126 27.5085L45.0197 26.8014L57.1057 14.7155L57.8128 14.0084L57.1057 13.3013L54.8971 11.0927L54.19 10.3856L53.4828 11.0927L44.3126 20.2629Z" fill="#FFCB00" stroke="black" stroke-width="2.00001"/>
<path d="M14.0001 83.0001H2V14.2001V10.4511L8.00004 3.00012L14.0001 10.4511V14.2001V83.0001Z" fill="white"/>
<path d="M14.0001 14.2001H2V10.6001L8.00004 3.00012L14.0001 10.6001V14.2001Z" fill="#FFCB00"/>
<path d="M14.0001 14.2001V10.4511L8.00004 3.00012L2 10.4511V14.2001M14.0001 14.2001V83.0001H2V14.2001M14.0001 14.2001H2" stroke="black" stroke-width="3.20001"/>
</svg>
