<svg width="23" height="24" viewBox="0 0 23 24" fill="none" xmlns="http://www.w3.org/2000/svg">
<path d="M18.1507 17.0497L23 21.8979L21.3979 23.5L16.5497 18.6507C14.7457 20.0968 12.502 20.8833 10.19 20.88C4.56513 20.88 0 16.3149 0 10.69C0 5.06513 4.56513 0.5 10.19 0.5C15.8149 0.5 20.38 5.06513 20.38 10.69C20.3833 13.002 19.5968 15.2457 18.1507 17.0497ZM15.8794 16.2096C17.3163 14.7319 18.1189 12.7511 18.1156 10.69C18.1156 6.31057 14.5683 2.76445 10.19 2.76445C5.81057 2.76445 2.26445 6.31057 2.26445 10.69C2.26445 15.0683 5.81057 18.6156 10.19 18.6156C12.2511 18.6189 14.2319 17.8163 15.7096 16.3794L15.8794 16.2096Z" fill="black"/>
</svg>
